HIERARCHY
ROOT Hips
{
	OFFSET -32.860001 56.121803 44.745396
	CHANNELS 6 Xposition Yposition Zposition Zrotation Xrotation Yrotation
	JOINT Chest
	{
		OFFSET -0.637402 0.831600 5.390099
		CHANNELS 6 Xposition Yposition Zposition Zrotation Xrotation Yrotation
		JOINT Chest2
		{
			OFFSET 0.000000 0.000000 4.429901
			CHANNELS 6 Xposition Yposition Zposition Zrotation Xrotation Yrotation
			JOINT Neck
			{
				OFFSET 0.000000 0.000000 10.301395
				CHANNELS 6 Xposition Yposition Zposition Zrotation Xrotation Yrotation
				JOINT Head
				{
					OFFSET 0.000000 0.000000 2.173897
					CHANNELS 6 Xposition Yposition Zposition Zrotation Xrotation Yrotation
					End Site
					{
						OFFSET 0.000000 0.000000 8.298004
					}
				}
			}
			JOINT LeftCollar
			{
				OFFSET 2.142401 -0.572701 5.717800
				CHANNELS 6 Xposition Yposition Zposition Zrotation Xrotation Yrotation
				JOINT LeftShoulder
				{
					OFFSET 5.674000 0.000000 0.000000
					CHANNELS 6 Xposition Yposition Zposition Zrotation Xrotation Yrotation
					JOINT LeftElbow
					{
						OFFSET 0.000000 0.000000 -12.238701
						CHANNELS 6 Xposition Yposition Zposition Zrotation Xrotation Yrotation
						JOINT LeftWrist
						{
							OFFSET 0.000000 0.000000 -10.253700
							CHANNELS 6 Xposition Yposition Zposition Zrotation Xrotation Yrotation
							End Site
							{
								OFFSET 0.000000 0.000000 -2.173901
							}
						}
					}
				}
			}
			JOINT RightCollar
			{
				OFFSET -2.882599 -1.580101 6.695801
				CHANNELS 6 Xposition Yposition Zposition Zrotation Xrotation Yrotation
				JOINT RightShoulder
				{
					OFFSET -4.235600 0.000000 0.000000
					CHANNELS 6 Xposition Yposition Zposition Zrotation Xrotation Yrotation
					JOINT RightElbow
					{
						OFFSET 0.000000 0.000000 -10.709900
						CHANNELS 6 Xposition Yposition Zposition Zrotation Xrotation Yrotation
						JOINT RightWrist
						{
							OFFSET 0.000000 0.000000 -11.716801
							CHANNELS 6 Xposition Yposition Zposition Zrotation Xrotation Yrotation
							End Site
							{
								OFFSET 0.000000 0.000000 -2.173901
							}
						}
					}
				}
			}
		}
	}
	JOINT LeftHip
	{
		OFFSET 2.279499 0.210400 -2.475502
		CHANNELS 6 Xposition Yposition Zposition Zrotation Xrotation Yrotation
		JOINT LeftKnee
		{
			OFFSET 0.000000 -0.000004 -20.742800
			CHANNELS 6 Xposition Yposition Zposition Zrotation Xrotation Yrotation
			JOINT LeftAnkle
			{
				OFFSET 0.000000 0.000000 -16.666000
				CHANNELS 6 Xposition Yposition Zposition Zrotation Xrotation Yrotation
				End Site
				{
					OFFSET 0.000000 -8.310898 0.000000
				}
			}
		}
	}
	JOINT RightHip
	{
		OFFSET -1.961899 0.232300 -2.727402
		CHANNELS 6 Xposition Yposition Zposition Zrotation Xrotation Yrotation
		JOINT RightKnee
		{
			OFFSET 0.000000 -0.000004 -20.526800
			CHANNELS 6 Xposition Yposition Zposition Zrotation Xrotation Yrotation
			JOINT RightAnkle
			{
				OFFSET 0.000000 0.000000 -16.867300
				CHANNELS 6 Xposition Yposition Zposition Zrotation Xrotation Yrotation
				End Site
				{
					OFFSET 0.000000 -7.186401 0.000000
				}
			}
		}
	}
}
MOTION
Frames: 6
Frame Time: 0.041667
-29.924896 32.961609 43.007992 1070.466261 3.206947 1.752340 -0.637401 0.831598 5.390106 7.567513 7.274797 7.733772 -0.000000 0.000002 4.429902 -16.455961 -5.453668 -1.610836 0.000003 -0.000004 10.301398 407.227298 8.042842 -16.615880 0.000003 -0.000008 2.173897 -358.091437 4.966195 4.390956 2.142401 -0.572693 5.717800 5.738357 -7.260508 2.811299 5.673996 0.000014 -0.000004 343.717467 -330.894634 -80.726368 -0.000001 0.000005 -12.238708 -710.860134 -30.936133 -349.144818 0.000004 0.000000 -10.253710 760.957932 17.935008 -13.342019 -2.882600 -1.580094 6.695797 -11.565780 -12.918688 23.734680 -4.235612 0.000000 -0.000006 -329.404150 -59.730189 121.819060 0.000009 -0.000004 -10.709892 115.560927 -164.093697 160.430188 0.000008 0.000002 -11.716805 -723.287527 -0.982229 361.289741 2.279500 0.210405 -2.475499 400.863174 -28.191847 17.197518 -0.000002 -0.000010 -20.742804 -479.461084 12.716180 69.891447 -0.000003 0.000002 -16.665998 436.410839 0.433143 41.916137 -1.961900 0.232302 -2.727401 -1175.499380 -50.342391 -78.465439 0.000000 -0.000006 -20.526802 1026.917740 130.640072 -306.018976 -0.000007 0.000009 -16.867296 22.470878 67.773727 -69.877248
-29.613697 32.857903 43.198891 1066.647475 2.637606 1.594199 -0.637407 0.831604 5.390103 11.366041 8.254567 7.562873 0.000002 0.000005 4.429898 -19.604361 -5.457636 -1.857089 -0.000002 0.000000 10.301403 407.331882 8.199132 -16.400748 -0.000002 0.000002 2.173908 -358.183972 5.020138 4.286938 2.142394 -0.572692 5.717807 6.219100 -7.561045 2.936451 5.674000 0.000001 -0.000008 343.340004 -330.632191 -80.403710 0.000005 0.000007 -12.238695 -711.577577 -31.955334 -349.195552 -0.000001 0.000002 -10.253704 751.365123 19.355858 -15.829418 -2.882608 -1.580097 6.695804 -11.519810 -13.208225 23.666173 -4.235614 0.000004 -0.000006 -329.002863 -59.625919 121.866735 0.000008 0.000008 -10.709888 115.647616 -163.984823 160.374631 0.000000 0.000007 -11.716819 -723.526310 -0.958531 360.853647 2.279499 0.210405 -2.475492 400.331922 -27.487734 16.515097 -0.000007 -0.000009 -20.742805 -477.691847 14.448090 69.095027 -0.000006 0.000001 -16.665998 435.519554 2.445678 40.608757 -1.961897 0.232302 -2.727408 -1174.100994 -50.157627 -77.291370 0.000000 -0.000006 -20.526800 1026.834357 130.960217 -305.623645 0.000002 0.000001 -16.867300 22.313943 67.267200 -71.208984
-29.303997 32.739304 43.403095 1063.039823 2.186303 1.350453 -0.637403 0.831601 5.390103 14.959328 9.139251 7.381192 -0.000002 -0.000002 4.429907 -22.820087 -5.522924 -2.032307 0.000001 -0.000004 10.301395 407.546705 8.384880 -16.218952 -0.000002 -0.000001 2.173904 -358.168235 5.042224 4.234602 2.142401 -0.572701 5.717802 6.766065 -7.815649 3.036051 5.673995 0.000005 0.000004 342.990954 -330.371278 -80.148411 0.000003 -0.000000 -12.238701 -712.335564 -32.992645 -349.247626 0.000003 0.000002 -10.253695 726.335594 22.325768 -13.931039 -2.882602 -1.580090 6.695799 -11.471909 -13.440698 23.464891 -4.235606 0.000002 -0.000004 -328.276213 -59.602143 122.184817 0.000005 0.000006 -10.709888 115.792798 -163.817525 160.301261 0.000001 0.000004 -11.716794 -723.798807 -0.944891 360.357639 2.279500 0.210404 -2.475502 399.182019 -26.817228 16.052075 -0.000004 -0.000008 -20.742798 -476.169315 16.081014 68.119867 0.000004 0.000000 -16.666000 434.515461 4.605883 39.377594 -1.961899 0.232301 -2.727400 -1172.887516 -50.326992 -76.087508 0.000001 -0.000011 -20.526800 1026.320726 131.169562 -305.178316 -0.000004 0.000004 -16.867306 22.396966 66.644321 -72.554497
-28.999798 32.606392 43.606491 1059.334582 1.799396 1.052983 -0.637403 0.831600 5.390103 -7.190302 5.247462 8.930302 0.000003 0.000000 4.429902 0.153050 -4.841105 -0.368419 -0.000005 -0.000006 10.301404 407.768850 8.433980 -15.917238 -0.000004 -0.000004 2.173902 -358.141461 5.096449 4.231510 2.142396 -0.572703 5.717804 7.322932 -8.198013 3.239485 5.673994 0.000000 0.000001 342.687803 -330.101349 -79.962015 0.000002 0.000004 -12.238695 -713.071859 -34.003400 -349.281558 -0.000003 -0.000000 -10.253702 711.324423 25.525399 -12.351432 -2.882606 -1.580100 6.695800 -11.449291 -13.848044 23.214198 -4.235611 0.000010 -0.000011 -327.198628 -59.674215 122.799507 0.000006 0.000006 -10.709890 115.966230 -163.615952 160.207756 -0.000001 0.000010 -11.716810 -724.030651 -0.957946 359.846003 2.279500 0.210397 -2.475492 395.538113 -26.573841 14.689328 -0.000005 -0.000006 -20.742802 -472.900442 17.518155 66.864854 -0.000007 0.000002 -16.665998 433.298841 6.988981 38.056868 -1.961900 0.232301 -2.727398 -1171.763212 -50.530265 -75.054797 0.000003 -0.000015 -20.526806 1025.799337 131.314458 -304.833173 -0.000002 0.000005 -16.867306 22.288140 66.228253 -73.609652
-28.705893 32.460205 43.795094 1055.557542 1.482845 0.726239 -0.637404 0.831605 5.390099 -6.405496 5.425263 9.169048 -0.000002 -0.000000 4.429895 -0.060477 -4.814712 -0.366695 0.000005 0.000000 10.301393 407.983564 8.501503 -15.623214 -0.000004 0.000001 2.173900 -358.062449 5.172235 4.200224 2.142401 -0.572694 5.717806 7.836219 -8.441859 3.473130 5.673996 0.000006 0.000000 342.463171 -329.849397 -79.847609 0.000001 0.000005 -12.238706 -713.770232 -34.957431 -349.263554 0.000002 0.000001 -10.253702 701.676480 28.934365 -10.921879 -2.882604 -1.580094 6.695799 -10.715164 -13.417996 23.328573 -4.235619 -0.000006 -0.000002 -326.655819 -60.322216 123.776142 0.000007 0.000000 -10.709893 116.147312 -163.367962 160.081425 -0.000003 0.000008 -11.716792 -724.168239 -1.007619 359.369911 2.279503 0.210405 -2.475504 399.218410 -24.925688 16.648011 -0.000009 -0.000004 -20.742798 -477.125433 18.432758 65.869805 -0.000005 0.000005 -16.666004 432.008017 9.435889 36.355564 -1.961900 0.232306 -2.727400 -1170.769064 -50.733549 -74.233795 0.000001 -0.000003 -20.526798 1025.355867 131.315769 -304.664140 -0.000001 -0.000003 -16.867300 22.404006 65.980652 -74.298969
-28.425493 32.302094 43.955494 1051.733074 1.254747 0.383454 -0.637397 0.831595 5.390096 -5.560221 5.494766 9.401977 0.000005 -0.000004 4.429906 -0.269513 -4.784836 -0.363791 -0.000003 -0.000011 10.301392 408.228577 8.633221 -15.368455 -0.000004 0.000005 2.173897 -357.967564 5.145945 4.198747 2.142393 -0.572701 5.717801 8.495943 -8.652985 3.686184 5.673992 0.000007 -0.000003 342.054125 -329.523569 -79.699941 -0.000001 0.000003 -12.238696 -714.255121 -35.702430 -349.173832 -0.000002 0.000006 -10.253706 697.182489 31.713572 -10.769308 -2.882606 -1.580099 6.695791 -12.131044 -11.969888 22.778908 -4.235610 -0.000001 0.000008 -322.125382 -62.343440 127.465619 0.000008 0.000008 -10.709888 116.293710 -163.107581 159.955558 -0.000002 0.000007 -11.716803 -724.197854 -1.090991 358.954854 2.279508 0.210398 -2.475501 395.216083 -24.829433 15.487389 -0.000001 -0.000004 -20.742802 -474.850488 19.247651 64.555833 0.000000 0.000007 -16.666004 430.673398 11.626890 34.335709 -1.961892 0.232298 -2.727403 -1170.004957 -50.893952 -73.740027 0.000002 -0.000001 -20.526802 1025.097412 131.191542 -304.737523 -0.000006 0.000001 -16.867304 22.649966 65.971704 -74.536570
